<?xml version="1.0" encoding="UTF-8" standalone="no"?>
<!DOCTYPE svg PUBLIC "-//W3C//DTD SVG 1.1//EN"
 "http://www.w3.org/Graphics/SVG/1.1/DTD/svg11.dtd">
<!-- Generated by graphviz version 2.47.0 (20210316.0004)
 -->
<!-- Title: dependencies Pages: 1 -->
<svg width="504pt" height="284pt"
 viewBox="0.00 0.00 504.00 284.00" xmlns="http://www.w3.org/2000/svg" xmlns:xlink="http://www.w3.org/1999/xlink">
<g id="graph0" class="graph" transform="scale(1 1) rotate(0) translate(4 280)">
<title>dependencies</title>
<polygon fill="white" stroke="transparent" points="-4,4 -4,-280 500,-280 500,4 -4,4"/>
<text text-anchor="start" x="227.01" y="-42.4" font-family="Times-12" font-weight="bold" font-size="14.00">Legend</text>
<polygon fill="#ffffb3" stroke="transparent" points="14,-10 14,-30 34,-30 34,-10 14,-10"/>
<text text-anchor="start" x="37.63" y="-15.4" font-family="Times-12" font-size="14.00"> &#160;Declarations</text>
<polygon fill="#8dd3c7" stroke="transparent" points="127,-10 127,-30 147,-30 147,-10 127,-10"/>
<text text-anchor="start" x="150.73" y="-15.4" font-family="Times-12" font-size="14.00"> &#160;Module</text>
<polygon fill="#80b1d3" stroke="transparent" points="213,-10 213,-30 233,-30 233,-10 213,-10"/>
<text text-anchor="start" x="236.78" y="-15.4" font-family="Times-12" font-size="14.00"> &#160;Bootstrap</text>
<polygon fill="#fdb462" stroke="transparent" points="310,-10 310,-30 330,-30 330,-10 310,-10"/>
<text text-anchor="start" x="333.67" y="-15.4" font-family="Times-12" font-size="14.00"> &#160;Providers</text>
<polygon fill="#fb8072" stroke="transparent" points="406,-10 406,-30 426,-30 426,-10 406,-10"/>
<text text-anchor="start" x="429.73" y="-15.4" font-family="Times-12" font-size="14.00"> &#160;Exports</text>
<g id="clust1" class="cluster">
<title>cluster_PostModule</title>
<polygon fill="none" stroke="black" stroke-dasharray="1,5" points="39,-70 39,-268 457,-268 457,-70 39,-70"/>
</g>
<g id="clust3" class="cluster">
<title>cluster_PostModule_imports</title>
<polygon fill="none" stroke="black" points="191,-78 191,-130 449,-130 449,-78 191,-78"/>
</g>
<g id="clust4" class="cluster">
<title>cluster_PostModule_exports</title>
<polygon fill="none" stroke="black" points="135,-208 135,-260 355,-260 355,-208 135,-208"/>
</g>
<g id="clust6" class="cluster">
<title>cluster_PostModule_providers</title>
<polygon fill="none" stroke="black" points="47,-78 47,-130 183,-130 183,-78 47,-78"/>
</g>
<!-- MetaOptionsModule -->
<g id="node1" class="node">
<title>MetaOptionsModule</title>
<polygon fill="#8dd3c7" stroke="black" points="441.15,-122 438.15,-126 417.15,-126 414.15,-122 308.85,-122 308.85,-86 441.15,-86 441.15,-122"/>
<text text-anchor="middle" x="375" y="-99.8" font-family="Times,serif" font-size="14.00">MetaOptionsModule</text>
</g>
<!-- PostModule -->
<g id="node3" class="node">
<title>PostModule</title>
<polygon fill="#8dd3c7" stroke="black" points="286.67,-187 283.67,-191 262.67,-191 259.67,-187 203.33,-187 203.33,-151 286.67,-151 286.67,-187"/>
<text text-anchor="middle" x="245" y="-164.8" font-family="Times,serif" font-size="14.00">PostModule</text>
</g>
<!-- MetaOptionsModule&#45;&gt;PostModule -->
<g id="edge1" class="edge">
<title>MetaOptionsModule&#45;&gt;PostModule</title>
<path fill="none" stroke="black" d="M327.6,-122.11C327.6,-141.34 327.6,-169 327.6,-169 327.6,-169 296.78,-169 296.78,-169"/>
<polygon fill="black" stroke="black" points="296.78,-165.5 286.78,-169 296.78,-172.5 296.78,-165.5"/>
</g>
<!-- UsersModule -->
<g id="node2" class="node">
<title>UsersModule</title>
<polygon fill="#8dd3c7" stroke="black" points="290.92,-122 287.92,-126 266.92,-126 263.92,-122 199.08,-122 199.08,-86 290.92,-86 290.92,-122"/>
<text text-anchor="middle" x="245" y="-99.8" font-family="Times,serif" font-size="14.00">UsersModule</text>
</g>
<!-- UsersModule&#45;&gt;PostModule -->
<g id="edge2" class="edge">
<title>UsersModule&#45;&gt;PostModule</title>
<path fill="none" stroke="black" d="M245,-122.11C245,-122.11 245,-140.99 245,-140.99"/>
<polygon fill="black" stroke="black" points="241.5,-140.99 245,-150.99 248.5,-140.99 241.5,-140.99"/>
</g>
<!-- PostsService  -->
<g id="node4" class="node">
<title>PostsService </title>
<polygon fill="#fb8072" stroke="black" points="346.54,-252 255.46,-252 255.46,-216 346.54,-216 346.54,-252"/>
<text text-anchor="middle" x="301" y="-229.8" font-family="Times,serif" font-size="14.00">PostsService </text>
</g>
<!-- PostModule&#45;&gt;PostsService  -->
<g id="edge3" class="edge">
<title>PostModule&#45;&gt;PostsService </title>
<path fill="none" stroke="black" stroke-dasharray="5,2" d="M271.16,-187.11C271.16,-187.11 271.16,-205.99 271.16,-205.99"/>
<polygon fill="black" stroke="black" points="267.66,-205.99 271.16,-215.99 274.66,-205.99 267.66,-205.99"/>
</g>
<!-- UsersModule  -->
<g id="node5" class="node">
<title>UsersModule </title>
<polygon fill="#fb8072" stroke="black" points="237.42,-252 142.58,-252 142.58,-216 237.42,-216 237.42,-252"/>
<text text-anchor="middle" x="190" y="-229.8" font-family="Times,serif" font-size="14.00">UsersModule </text>
</g>
<!-- PostModule&#45;&gt;UsersModule  -->
<g id="edge4" class="edge">
<title>PostModule&#45;&gt;UsersModule </title>
<path fill="none" stroke="black" stroke-dasharray="5,2" d="M220.31,-187.11C220.31,-187.11 220.31,-205.99 220.31,-205.99"/>
<polygon fill="black" stroke="black" points="216.81,-205.99 220.31,-215.99 223.81,-205.99 216.81,-205.99"/>
</g>
<!-- PostsService -->
<g id="node6" class="node">
<title>PostsService</title>
<ellipse fill="#fdb462" stroke="black" cx="115" cy="-104" rx="60.27" ry="18"/>
<text text-anchor="middle" x="115" y="-99.8" font-family="Times,serif" font-size="14.00">PostsService</text>
</g>
<!-- PostsService&#45;&gt;PostModule -->
<g id="edge5" class="edge">
<title>PostsService&#45;&gt;PostModule</title>
<path fill="none" stroke="black" d="M158.96,-116.53C158.96,-135.42 158.96,-169 158.96,-169 158.96,-169 193.24,-169 193.24,-169"/>
<polygon fill="black" stroke="black" points="193.24,-172.5 203.24,-169 193.24,-165.5 193.24,-172.5"/>
</g>
</g>
</svg>
