<?xml version="1.0" encoding="UTF-8" standalone="no"?>
<!DOCTYPE svg PUBLIC "-//W3C//DTD SVG 1.1//EN"
 "http://www.w3.org/Graphics/SVG/1.1/DTD/svg11.dtd">
<!-- Generated by graphviz version 2.47.0 (20210316.0004)
 -->
<!-- Title: dependencies Pages: 1 -->
<svg width="886pt" height="211pt"
 viewBox="0.00 0.00 886.00 211.00" xmlns="http://www.w3.org/2000/svg" xmlns:xlink="http://www.w3.org/1999/xlink">
<g id="graph0" class="graph" transform="scale(1 1) rotate(0) translate(4 207)">
<title>dependencies</title>
<polygon fill="white" stroke="transparent" points="-4,4 -4,-207 882,-207 882,4 -4,4"/>
<text text-anchor="start" x="418.01" y="-42.4" font-family="Times-12" font-weight="bold" font-size="14.00">Legend</text>
<polygon fill="#ffffb3" stroke="transparent" points="205,-10 205,-30 225,-30 225,-10 205,-10"/>
<text text-anchor="start" x="228.63" y="-15.4" font-family="Times-12" font-size="14.00"> &#160;Declarations</text>
<polygon fill="#8dd3c7" stroke="transparent" points="318,-10 318,-30 338,-30 338,-10 318,-10"/>
<text text-anchor="start" x="341.73" y="-15.4" font-family="Times-12" font-size="14.00"> &#160;Module</text>
<polygon fill="#80b1d3" stroke="transparent" points="404,-10 404,-30 424,-30 424,-10 404,-10"/>
<text text-anchor="start" x="427.78" y="-15.4" font-family="Times-12" font-size="14.00"> &#160;Bootstrap</text>
<polygon fill="#fdb462" stroke="transparent" points="501,-10 501,-30 521,-30 521,-10 501,-10"/>
<text text-anchor="start" x="524.67" y="-15.4" font-family="Times-12" font-size="14.00"> &#160;Providers</text>
<polygon fill="#fb8072" stroke="transparent" points="597,-10 597,-30 617,-30 617,-10 597,-10"/>
<text text-anchor="start" x="620.73" y="-15.4" font-family="Times-12" font-size="14.00"> &#160;Exports</text>
<g id="clust1" class="cluster">
<title>cluster_AppModule</title>
<polygon fill="none" stroke="black" stroke-dasharray="1,5" points="8,-70 8,-195 870,-195 870,-70 8,-70"/>
</g>
<g id="clust3" class="cluster">
<title>cluster_AppModule_imports</title>
<polygon fill="none" stroke="black" points="292,-78 292,-130 862,-130 862,-78 292,-78"/>
</g>
<g id="clust6" class="cluster">
<title>cluster_AppModule_providers</title>
<polygon fill="none" stroke="black" points="16,-78 16,-130 284,-130 284,-78 16,-78"/>
</g>
<!-- AuthModule -->
<g id="node1" class="node">
<title>AuthModule</title>
<polygon fill="#8dd3c7" stroke="black" points="853.55,-122 850.55,-126 829.55,-126 826.55,-122 766.45,-122 766.45,-86 853.55,-86 853.55,-122"/>
<text text-anchor="middle" x="810" y="-99.8" font-family="Times,serif" font-size="14.00">AuthModule</text>
</g>
<!-- AppModule -->
<g id="node6" class="node">
<title>AppModule</title>
<polygon fill="#8dd3c7" stroke="black" points="494.66,-187 491.66,-191 470.66,-191 467.66,-187 411.34,-187 411.34,-151 494.66,-151 494.66,-187"/>
<text text-anchor="middle" x="453" y="-164.8" font-family="Times,serif" font-size="14.00">AppModule</text>
</g>
<!-- AuthModule&#45;&gt;AppModule -->
<g id="edge1" class="edge">
<title>AuthModule&#45;&gt;AppModule</title>
<path fill="none" stroke="black" d="M810,-122.29C810,-144.21 810,-178 810,-178 810,-178 505,-178 505,-178"/>
<polygon fill="black" stroke="black" points="505,-174.5 495,-178 505,-181.5 505,-174.5"/>
</g>
<!-- MetaOptionsModule -->
<g id="node2" class="node">
<title>MetaOptionsModule</title>
<polygon fill="#8dd3c7" stroke="black" points="748.15,-122 745.15,-126 724.15,-126 721.15,-122 615.85,-122 615.85,-86 748.15,-86 748.15,-122"/>
<text text-anchor="middle" x="682" y="-99.8" font-family="Times,serif" font-size="14.00">MetaOptionsModule</text>
</g>
<!-- MetaOptionsModule&#45;&gt;AppModule -->
<g id="edge2" class="edge">
<title>MetaOptionsModule&#45;&gt;AppModule</title>
<path fill="none" stroke="black" d="M682,-122.11C682,-141.34 682,-169 682,-169 682,-169 504.74,-169 504.74,-169"/>
<polygon fill="black" stroke="black" points="504.74,-165.5 494.74,-169 504.74,-172.5 504.74,-165.5"/>
</g>
<!-- PostModule -->
<g id="node3" class="node">
<title>PostModule</title>
<polygon fill="#8dd3c7" stroke="black" points="597.67,-122 594.67,-126 573.67,-126 570.67,-122 514.33,-122 514.33,-86 597.67,-86 597.67,-122"/>
<text text-anchor="middle" x="556" y="-99.8" font-family="Times,serif" font-size="14.00">PostModule</text>
</g>
<!-- PostModule&#45;&gt;AppModule -->
<g id="edge3" class="edge">
<title>PostModule&#45;&gt;AppModule</title>
<path fill="none" stroke="black" d="M556,-122.03C556,-138.4 556,-160 556,-160 556,-160 504.89,-160 504.89,-160"/>
<polygon fill="black" stroke="black" points="504.89,-156.5 494.89,-160 504.89,-163.5 504.89,-156.5"/>
</g>
<!-- TagsModule -->
<g id="node4" class="node">
<title>TagsModule</title>
<polygon fill="#8dd3c7" stroke="black" points="496.26,-122 493.26,-126 472.26,-126 469.26,-122 409.74,-122 409.74,-86 496.26,-86 496.26,-122"/>
<text text-anchor="middle" x="453" y="-99.8" font-family="Times,serif" font-size="14.00">TagsModule</text>
</g>
<!-- TagsModule&#45;&gt;AppModule -->
<g id="edge4" class="edge">
<title>TagsModule&#45;&gt;AppModule</title>
<path fill="none" stroke="black" d="M453,-122.11C453,-122.11 453,-140.99 453,-140.99"/>
<polygon fill="black" stroke="black" points="449.5,-140.99 453,-150.99 456.5,-140.99 449.5,-140.99"/>
</g>
<!-- UsersModule -->
<g id="node5" class="node">
<title>UsersModule</title>
<polygon fill="#8dd3c7" stroke="black" points="391.92,-122 388.92,-126 367.92,-126 364.92,-122 300.08,-122 300.08,-86 391.92,-86 391.92,-122"/>
<text text-anchor="middle" x="346" y="-99.8" font-family="Times,serif" font-size="14.00">UsersModule</text>
</g>
<!-- UsersModule&#45;&gt;AppModule -->
<g id="edge5" class="edge">
<title>UsersModule&#45;&gt;AppModule</title>
<path fill="none" stroke="black" d="M346,-122.03C346,-138.4 346,-160 346,-160 346,-160 401.32,-160 401.32,-160"/>
<polygon fill="black" stroke="black" points="401.32,-163.5 411.32,-160 401.32,-156.5 401.32,-163.5"/>
</g>
<!-- AppService -->
<g id="node7" class="node">
<title>AppService</title>
<ellipse fill="#fdb462" stroke="black" cx="219" cy="-104" rx="56.74" ry="18"/>
<text text-anchor="middle" x="219" y="-99.8" font-family="Times,serif" font-size="14.00">AppService</text>
</g>
<!-- AppService&#45;&gt;AppModule -->
<g id="edge6" class="edge">
<title>AppService&#45;&gt;AppModule</title>
<path fill="none" stroke="black" d="M219,-122.11C219,-141.34 219,-169 219,-169 219,-169 401.17,-169 401.17,-169"/>
<polygon fill="black" stroke="black" points="401.17,-172.5 411.17,-169 401.17,-165.5 401.17,-172.5"/>
</g>
<!-- PostsService -->
<g id="node8" class="node">
<title>PostsService</title>
<ellipse fill="#fdb462" stroke="black" cx="84" cy="-104" rx="60.27" ry="18"/>
<text text-anchor="middle" x="84" y="-99.8" font-family="Times,serif" font-size="14.00">PostsService</text>
</g>
<!-- PostsService&#45;&gt;AppModule -->
<g id="edge7" class="edge">
<title>PostsService&#45;&gt;AppModule</title>
<path fill="none" stroke="black" d="M84,-122.29C84,-144.21 84,-178 84,-178 84,-178 401.03,-178 401.03,-178"/>
<polygon fill="black" stroke="black" points="401.03,-181.5 411.03,-178 401.03,-174.5 401.03,-181.5"/>
</g>
</g>
</svg>
