<?xml version="1.0" encoding="UTF-8" standalone="no"?>
<!DOCTYPE svg PUBLIC "-//W3C//DTD SVG 1.1//EN"
 "http://www.w3.org/Graphics/SVG/1.1/DTD/svg11.dtd">
<!-- Generated by graphviz version 2.47.0 (20210316.0004)
 -->
<!-- Title: dependencies Pages: 1 -->
<svg width="1069pt" height="298pt"
 viewBox="0.00 0.00 1069.00 298.00" xmlns="http://www.w3.org/2000/svg" xmlns:xlink="http://www.w3.org/1999/xlink">
<g id="graph0" class="graph" transform="scale(1 1) rotate(0) translate(4 294)">
<title>dependencies</title>
<polygon fill="white" stroke="transparent" points="-4,4 -4,-294 1065,-294 1065,4 -4,4"/>
<text text-anchor="start" x="509.51" y="-42.4" font-family="Times-12" font-weight="bold" font-size="14.00">Legend</text>
<polygon fill="#ffffb3" stroke="transparent" points="296.5,-10 296.5,-30 316.5,-30 316.5,-10 296.5,-10"/>
<text text-anchor="start" x="320.13" y="-15.4" font-family="Times-12" font-size="14.00"> &#160;Declarations</text>
<polygon fill="#8dd3c7" stroke="transparent" points="409.5,-10 409.5,-30 429.5,-30 429.5,-10 409.5,-10"/>
<text text-anchor="start" x="433.23" y="-15.4" font-family="Times-12" font-size="14.00"> &#160;Module</text>
<polygon fill="#80b1d3" stroke="transparent" points="495.5,-10 495.5,-30 515.5,-30 515.5,-10 495.5,-10"/>
<text text-anchor="start" x="519.28" y="-15.4" font-family="Times-12" font-size="14.00"> &#160;Bootstrap</text>
<polygon fill="#fdb462" stroke="transparent" points="592.5,-10 592.5,-30 612.5,-30 612.5,-10 592.5,-10"/>
<text text-anchor="start" x="616.17" y="-15.4" font-family="Times-12" font-size="14.00"> &#160;Providers</text>
<polygon fill="#fb8072" stroke="transparent" points="688.5,-10 688.5,-30 708.5,-30 708.5,-10 688.5,-10"/>
<text text-anchor="start" x="712.23" y="-15.4" font-family="Times-12" font-size="14.00"> &#160;Exports</text>
<g id="clust1" class="cluster">
<title>cluster_AppModule</title>
<polygon fill="none" stroke="black" stroke-dasharray="1,5" points="8,-70 8,-274 513,-274 513,-70 8,-70"/>
</g>
<g id="clust3" class="cluster">
<title>cluster_AppModule_imports</title>
<polygon fill="none" stroke="black" points="292,-78 292,-198 505,-198 505,-78 292,-78"/>
</g>
<g id="clust6" class="cluster">
<title>cluster_AppModule_providers</title>
<polygon fill="none" stroke="black" points="16,-78 16,-130 284,-130 284,-78 16,-78"/>
</g>
<g id="clust7" class="cluster">
<title>cluster_AuthModule</title>
<polygon fill="none" stroke="black" stroke-dasharray="1,5" points="521,-138 521,-206 785,-206 785,-138 521,-138"/>
</g>
<g id="clust10" class="cluster">
<title>cluster_AuthModule_exports</title>
<polygon fill="none" stroke="black" points="671,-146 671,-198 777,-198 777,-146 671,-146"/>
</g>
<g id="clust12" class="cluster">
<title>cluster_AuthModule_providers</title>
<polygon fill="none" stroke="black" points="529,-146 529,-198 663,-198 663,-146 529,-146"/>
</g>
<g id="clust13" class="cluster">
<title>cluster_PostModule</title>
<polygon fill="none" stroke="black" stroke-dasharray="1,5" points="521,-214 521,-282 645,-282 645,-214 521,-214"/>
</g>
<g id="clust16" class="cluster">
<title>cluster_PostModule_exports</title>
<polygon fill="none" stroke="black" points="529,-222 529,-274 637,-274 637,-222 529,-222"/>
</g>
<g id="clust19" class="cluster">
<title>cluster_UsersModule</title>
<polygon fill="none" stroke="black" stroke-dasharray="1,5" points="793,-138 793,-206 1053,-206 1053,-138 793,-138"/>
</g>
<g id="clust22" class="cluster">
<title>cluster_UsersModule_exports</title>
<polygon fill="none" stroke="black" points="941,-146 941,-198 1045,-198 1045,-146 941,-146"/>
</g>
<g id="clust24" class="cluster">
<title>cluster_UsersModule_providers</title>
<polygon fill="none" stroke="black" points="801,-146 801,-198 933,-198 933,-146 801,-146"/>
</g>
<!-- AuthModule -->
<g id="node1" class="node">
<title>AuthModule</title>
<polygon fill="#8dd3c7" stroke="black" points="387.55,-122 384.55,-126 363.55,-126 360.55,-122 300.45,-122 300.45,-86 387.55,-86 387.55,-122"/>
<text text-anchor="middle" x="344" y="-99.8" font-family="Times,serif" font-size="14.00">AuthModule</text>
</g>
<!-- AppModule -->
<g id="node4" class="node">
<title>AppModule</title>
<polygon fill="#8dd3c7" stroke="black" points="383.66,-266 380.66,-270 359.66,-270 356.66,-266 300.34,-266 300.34,-230 383.66,-230 383.66,-266"/>
<text text-anchor="middle" x="342" y="-243.8" font-family="Times,serif" font-size="14.00">AppModule</text>
</g>
<!-- AuthModule&#45;&gt;AppModule -->
<g id="edge1" class="edge">
<title>AuthModule&#45;&gt;AppModule</title>
<path fill="none" stroke="black" d="M387.86,-110C393.04,-110 396.53,-110 396.53,-110 396.53,-110 396.53,-248 396.53,-248 396.53,-248 393.88,-248 393.88,-248"/>
<polygon fill="black" stroke="black" points="393.88,-244.5 383.88,-248 393.88,-251.5 393.88,-244.5"/>
</g>
<!-- AuthService  -->
<g id="node7" class="node">
<title>AuthService </title>
<polygon fill="#fb8072" stroke="black" points="768.98,-190 679.02,-190 679.02,-154 768.98,-154 768.98,-190"/>
<text text-anchor="middle" x="724" y="-167.8" font-family="Times,serif" font-size="14.00">AuthService </text>
</g>
<!-- AuthModule&#45;&gt;AuthService  -->
<g id="edge6" class="edge">
<title>AuthModule&#45;&gt;AuthService </title>
<path fill="none" stroke="black" stroke-dasharray="5,2" d="M342.03,-122.19C342.03,-130.28 342.03,-138 342.03,-138 342.03,-138 724,-138 724,-138 724,-138 724,-143.81 724,-143.81"/>
<polygon fill="black" stroke="black" points="720.5,-143.81 724,-153.81 727.5,-143.81 720.5,-143.81"/>
</g>
<!-- PostModule -->
<g id="node2" class="node">
<title>PostModule</title>
<polygon fill="#8dd3c7" stroke="black" points="383.67,-190 380.67,-194 359.67,-194 356.67,-190 300.33,-190 300.33,-154 383.67,-154 383.67,-190"/>
<text text-anchor="middle" x="342" y="-167.8" font-family="Times,serif" font-size="14.00">PostModule</text>
</g>
<!-- PostModule&#45;&gt;AppModule -->
<g id="edge2" class="edge">
<title>PostModule&#45;&gt;AppModule</title>
<path fill="none" stroke="black" d="M342,-190.01C342,-190.01 342,-219.85 342,-219.85"/>
<polygon fill="black" stroke="black" points="338.5,-219.85 342,-229.85 345.5,-219.85 338.5,-219.85"/>
</g>
<!-- PostsService  -->
<g id="node9" class="node">
<title>PostsService </title>
<polygon fill="#fb8072" stroke="black" points="628.54,-266 537.46,-266 537.46,-230 628.54,-230 628.54,-266"/>
<text text-anchor="middle" x="583" y="-243.8" font-family="Times,serif" font-size="14.00">PostsService </text>
</g>
<!-- PostModule&#45;&gt;PostsService  -->
<g id="edge9" class="edge">
<title>PostModule&#45;&gt;PostsService </title>
<path fill="none" stroke="black" stroke-dasharray="5,2" d="M383.87,-181C388.82,-181 392.15,-181 392.15,-181 392.15,-181 392.15,-239 392.15,-239 392.15,-239 527.29,-239 527.29,-239"/>
<polygon fill="black" stroke="black" points="527.29,-242.5 537.29,-239 527.29,-235.5 527.29,-242.5"/>
</g>
<!-- UsersModule -->
<g id="node3" class="node">
<title>UsersModule</title>
<polygon fill="#8dd3c7" stroke="black" points="496.92,-122 493.92,-126 472.92,-126 469.92,-122 405.08,-122 405.08,-86 496.92,-86 496.92,-122"/>
<text text-anchor="middle" x="451" y="-99.8" font-family="Times,serif" font-size="14.00">UsersModule</text>
</g>
<!-- UsersModule&#45;&gt;PostModule -->
<g id="edge8" class="edge">
<title>UsersModule&#45;&gt;PostModule</title>
<path fill="none" stroke="black" d="M435.76,-122.22C435.76,-142.37 435.76,-172 435.76,-172 435.76,-172 393.67,-172 393.67,-172"/>
<polygon fill="black" stroke="black" points="393.67,-168.5 383.67,-172 393.67,-175.5 393.67,-168.5"/>
</g>
<!-- UsersModule&#45;&gt;AppModule -->
<g id="edge3" class="edge">
<title>UsersModule&#45;&gt;AppModule</title>
<path fill="none" stroke="black" d="M466.24,-122.15C466.24,-162.68 466.24,-257 466.24,-257 466.24,-257 393.71,-257 393.71,-257"/>
<polygon fill="black" stroke="black" points="393.71,-253.5 383.71,-257 393.71,-260.5 393.71,-253.5"/>
</g>
<!-- UserService  -->
<g id="node10" class="node">
<title>UserService </title>
<polygon fill="#fb8072" stroke="black" points="1036.9,-190 949.1,-190 949.1,-154 1036.9,-154 1036.9,-190"/>
<text text-anchor="middle" x="993" y="-167.8" font-family="Times,serif" font-size="14.00">UserService </text>
</g>
<!-- UsersModule&#45;&gt;UserService  -->
<g id="edge11" class="edge">
<title>UsersModule&#45;&gt;UserService </title>
<path fill="none" stroke="black" stroke-dasharray="5,2" d="M496.74,-98C627.41,-98 993,-98 993,-98 993,-98 993,-143.71 993,-143.71"/>
<polygon fill="black" stroke="black" points="989.5,-143.71 993,-153.71 996.5,-143.71 989.5,-143.71"/>
</g>
<!-- AppService -->
<g id="node5" class="node">
<title>AppService</title>
<ellipse fill="#fdb462" stroke="black" cx="81" cy="-104" rx="56.74" ry="18"/>
<text text-anchor="middle" x="81" y="-99.8" font-family="Times,serif" font-size="14.00">AppService</text>
</g>
<!-- AppService&#45;&gt;AppModule -->
<g id="edge4" class="edge">
<title>AppService&#45;&gt;AppModule</title>
<path fill="none" stroke="black" d="M81,-122.09C81,-161.99 81,-254 81,-254 81,-254 290.07,-254 290.07,-254"/>
<polygon fill="black" stroke="black" points="290.07,-257.5 300.07,-254 290.07,-250.5 290.07,-257.5"/>
</g>
<!-- PostsService -->
<g id="node6" class="node">
<title>PostsService</title>
<ellipse fill="#fdb462" stroke="black" cx="216" cy="-104" rx="60.27" ry="18"/>
<text text-anchor="middle" x="216" y="-99.8" font-family="Times,serif" font-size="14.00">PostsService</text>
</g>
<!-- PostsService&#45;&gt;PostModule -->
<g id="edge10" class="edge">
<title>PostsService&#45;&gt;PostModule</title>
<path fill="none" stroke="black" d="M236.13,-121.16C236.13,-141.3 236.13,-172 236.13,-172 236.13,-172 290.16,-172 290.16,-172"/>
<polygon fill="black" stroke="black" points="290.16,-175.5 300.16,-172 290.16,-168.5 290.16,-175.5"/>
</g>
<!-- PostsService&#45;&gt;AppModule -->
<g id="edge5" class="edge">
<title>PostsService&#45;&gt;AppModule</title>
<path fill="none" stroke="black" d="M195.87,-121.2C195.87,-158.19 195.87,-242 195.87,-242 195.87,-242 290.13,-242 290.13,-242"/>
<polygon fill="black" stroke="black" points="290.13,-245.5 300.13,-242 290.13,-238.5 290.13,-245.5"/>
</g>
<!-- AuthService -->
<g id="node8" class="node">
<title>AuthService</title>
<ellipse fill="#fdb462" stroke="black" cx="596" cy="-172" rx="59.11" ry="18"/>
<text text-anchor="middle" x="596" y="-167.8" font-family="Times,serif" font-size="14.00">AuthService</text>
</g>
<!-- AuthService&#45;&gt;AuthModule -->
<g id="edge7" class="edge">
<title>AuthService&#45;&gt;AuthModule</title>
<path fill="none" stroke="black" d="M544.49,-163C486.69,-163 400.91,-163 400.91,-163 400.91,-163 400.91,-98 400.91,-98 400.91,-98 397.71,-98 397.71,-98"/>
<polygon fill="black" stroke="black" points="397.71,-94.5 387.71,-98 397.71,-101.5 397.71,-94.5"/>
</g>
<!-- UserService -->
<g id="node11" class="node">
<title>UserService</title>
<ellipse fill="#fdb462" stroke="black" cx="867" cy="-172" rx="58.44" ry="18"/>
<text text-anchor="middle" x="867" y="-167.8" font-family="Times,serif" font-size="14.00">UserService</text>
</g>
<!-- UserService&#45;&gt;UsersModule -->
<g id="edge12" class="edge">
<title>UserService&#45;&gt;UsersModule</title>
<path fill="none" stroke="black" d="M867,-153.73C867,-135.44 867,-110 867,-110 867,-110 507.11,-110 507.11,-110"/>
<polygon fill="black" stroke="black" points="507.11,-106.5 497.11,-110 507.11,-113.5 507.11,-106.5"/>
</g>
</g>
</svg>
