<?xml version="1.0" encoding="UTF-8" standalone="no"?>
<!DOCTYPE svg PUBLIC "-//W3C//DTD SVG 1.1//EN"
 "http://www.w3.org/Graphics/SVG/1.1/DTD/svg11.dtd">
<!-- Generated by graphviz version 2.47.0 (20210316.0004)
 -->
<!-- Title: dependencies Pages: 1 -->
<svg width="1324pt" height="374pt"
 viewBox="0.00 0.00 1324.00 374.00" xmlns="http://www.w3.org/2000/svg" xmlns:xlink="http://www.w3.org/1999/xlink">
<g id="graph0" class="graph" transform="scale(1 1) rotate(0) translate(4 370)">
<title>dependencies</title>
<polygon fill="white" stroke="transparent" points="-4,4 -4,-370 1320,-370 1320,4 -4,4"/>
<text text-anchor="start" x="637.01" y="-42.4" font-family="Times-12" font-weight="bold" font-size="14.00">Legend</text>
<polygon fill="#ffffb3" stroke="transparent" points="424,-10 424,-30 444,-30 444,-10 424,-10"/>
<text text-anchor="start" x="447.63" y="-15.4" font-family="Times-12" font-size="14.00"> &#160;Declarations</text>
<polygon fill="#8dd3c7" stroke="transparent" points="537,-10 537,-30 557,-30 557,-10 537,-10"/>
<text text-anchor="start" x="560.73" y="-15.4" font-family="Times-12" font-size="14.00"> &#160;Module</text>
<polygon fill="#80b1d3" stroke="transparent" points="623,-10 623,-30 643,-30 643,-10 623,-10"/>
<text text-anchor="start" x="646.78" y="-15.4" font-family="Times-12" font-size="14.00"> &#160;Bootstrap</text>
<polygon fill="#fdb462" stroke="transparent" points="720,-10 720,-30 740,-30 740,-10 720,-10"/>
<text text-anchor="start" x="743.67" y="-15.4" font-family="Times-12" font-size="14.00"> &#160;Providers</text>
<polygon fill="#fb8072" stroke="transparent" points="816,-10 816,-30 836,-30 836,-10 816,-10"/>
<text text-anchor="start" x="839.73" y="-15.4" font-family="Times-12" font-size="14.00"> &#160;Exports</text>
<g id="clust1" class="cluster">
<title>cluster_AppModule</title>
<polygon fill="none" stroke="black" stroke-dasharray="1,5" points="8,-146 8,-350 768,-350 768,-146 8,-146"/>
</g>
<g id="clust3" class="cluster">
<title>cluster_AppModule_imports</title>
<polygon fill="none" stroke="black" points="292,-154 292,-274 760,-274 760,-154 292,-154"/>
</g>
<g id="clust6" class="cluster">
<title>cluster_AppModule_providers</title>
<polygon fill="none" stroke="black" points="16,-154 16,-206 284,-206 284,-154 16,-154"/>
</g>
<g id="clust7" class="cluster">
<title>cluster_AuthModule</title>
<polygon fill="none" stroke="black" stroke-dasharray="1,5" points="776,-214 776,-282 1040,-282 1040,-214 776,-214"/>
</g>
<g id="clust10" class="cluster">
<title>cluster_AuthModule_exports</title>
<polygon fill="none" stroke="black" points="926,-222 926,-274 1032,-274 1032,-222 926,-222"/>
</g>
<g id="clust12" class="cluster">
<title>cluster_AuthModule_providers</title>
<polygon fill="none" stroke="black" points="784,-222 784,-274 918,-274 918,-222 784,-222"/>
</g>
<g id="clust13" class="cluster">
<title>cluster_MetaOptionsModule</title>
<polygon fill="none" stroke="black" stroke-dasharray="1,5" points="260,-70 260,-138 472,-138 472,-70 260,-70"/>
</g>
<g id="clust18" class="cluster">
<title>cluster_MetaOptionsModule_providers</title>
<polygon fill="none" stroke="black" points="268,-78 268,-130 464,-130 464,-78 268,-78"/>
</g>
<g id="clust19" class="cluster">
<title>cluster_PostModule</title>
<polygon fill="none" stroke="black" stroke-dasharray="1,5" points="776,-290 776,-358 1012,-358 1012,-290 776,-290"/>
</g>
<g id="clust22" class="cluster">
<title>cluster_PostModule_exports</title>
<polygon fill="none" stroke="black" points="784,-298 784,-350 1004,-350 1004,-298 784,-298"/>
</g>
<g id="clust31" class="cluster">
<title>cluster_UsersModule</title>
<polygon fill="none" stroke="black" stroke-dasharray="1,5" points="1048,-214 1048,-282 1308,-282 1308,-214 1048,-214"/>
</g>
<g id="clust34" class="cluster">
<title>cluster_UsersModule_exports</title>
<polygon fill="none" stroke="black" points="1196,-222 1196,-274 1300,-274 1300,-222 1196,-222"/>
</g>
<g id="clust36" class="cluster">
<title>cluster_UsersModule_providers</title>
<polygon fill="none" stroke="black" points="1056,-222 1056,-274 1188,-274 1188,-222 1056,-222"/>
</g>
<!-- AuthModule -->
<g id="node1" class="node">
<title>AuthModule</title>
<polygon fill="#8dd3c7" stroke="black" points="642.55,-198 639.55,-202 618.55,-202 615.55,-198 555.45,-198 555.45,-162 642.55,-162 642.55,-198"/>
<text text-anchor="middle" x="599" y="-175.8" font-family="Times,serif" font-size="14.00">AuthModule</text>
</g>
<!-- AppModule -->
<g id="node6" class="node">
<title>AppModule</title>
<polygon fill="#8dd3c7" stroke="black" points="515.66,-342 512.66,-346 491.66,-346 488.66,-342 432.34,-342 432.34,-306 515.66,-306 515.66,-342"/>
<text text-anchor="middle" x="474" y="-319.8" font-family="Times,serif" font-size="14.00">AppModule</text>
</g>
<!-- AuthModule&#45;&gt;AppModule -->
<g id="edge1" class="edge">
<title>AuthModule&#45;&gt;AppModule</title>
<path fill="none" stroke="black" d="M599,-198.21C599,-235.06 599,-315 599,-315 599,-315 525.97,-315 525.97,-315"/>
<polygon fill="black" stroke="black" points="525.97,-311.5 515.97,-315 525.97,-318.5 525.97,-311.5"/>
</g>
<!-- AuthService  -->
<g id="node9" class="node">
<title>AuthService </title>
<polygon fill="#fb8072" stroke="black" points="1023.98,-266 934.02,-266 934.02,-230 1023.98,-230 1023.98,-266"/>
<text text-anchor="middle" x="979" y="-243.8" font-family="Times,serif" font-size="14.00">AuthService </text>
</g>
<!-- AuthModule&#45;&gt;AuthService  -->
<g id="edge8" class="edge">
<title>AuthModule&#45;&gt;AuthService </title>
<path fill="none" stroke="black" stroke-dasharray="5,2" d="M577.11,-198.19C577.11,-206.28 577.11,-214 577.11,-214 577.11,-214 979,-214 979,-214 979,-214 979,-219.81 979,-219.81"/>
<polygon fill="black" stroke="black" points="975.5,-219.81 979,-229.81 982.5,-219.81 975.5,-219.81"/>
</g>
<!-- MetaOptionsModule -->
<g id="node2" class="node">
<title>MetaOptionsModule</title>
<polygon fill="#8dd3c7" stroke="black" points="432.15,-198 429.15,-202 408.15,-202 405.15,-198 299.85,-198 299.85,-162 432.15,-162 432.15,-198"/>
<text text-anchor="middle" x="366" y="-175.8" font-family="Times,serif" font-size="14.00">MetaOptionsModule</text>
</g>
<!-- PostModule -->
<g id="node3" class="node">
<title>PostModule</title>
<polygon fill="#8dd3c7" stroke="black" points="454.67,-266 451.67,-270 430.67,-270 427.67,-266 371.33,-266 371.33,-230 454.67,-230 454.67,-266"/>
<text text-anchor="middle" x="413" y="-243.8" font-family="Times,serif" font-size="14.00">PostModule</text>
</g>
<!-- MetaOptionsModule&#45;&gt;PostModule -->
<g id="edge11" class="edge">
<title>MetaOptionsModule&#45;&gt;PostModule</title>
<path fill="none" stroke="black" d="M401.74,-198.22C401.74,-198.22 401.74,-219.73 401.74,-219.73"/>
<polygon fill="black" stroke="black" points="398.24,-219.73 401.74,-229.73 405.24,-219.73 398.24,-219.73"/>
</g>
<!-- MetaOptionsModule&#45;&gt;AppModule -->
<g id="edge2" class="edge">
<title>MetaOptionsModule&#45;&gt;AppModule</title>
<path fill="none" stroke="black" d="M335.42,-198.21C335.42,-235.06 335.42,-315 335.42,-315 335.42,-315 422.05,-315 422.05,-315"/>
<polygon fill="black" stroke="black" points="422.05,-318.5 432.05,-315 422.05,-311.5 422.05,-318.5"/>
</g>
<!-- PostModule&#45;&gt;AppModule -->
<g id="edge3" class="edge">
<title>PostModule&#45;&gt;AppModule</title>
<path fill="none" stroke="black" d="M439.73,-266.01C439.73,-266.01 439.73,-295.85 439.73,-295.85"/>
<polygon fill="black" stroke="black" points="436.23,-295.85 439.73,-305.85 443.23,-295.85 436.23,-295.85"/>
</g>
<!-- PostsService  -->
<g id="node12" class="node">
<title>PostsService </title>
<polygon fill="#fb8072" stroke="black" points="883.54,-342 792.46,-342 792.46,-306 883.54,-306 883.54,-342"/>
<text text-anchor="middle" x="838" y="-319.8" font-family="Times,serif" font-size="14.00">PostsService </text>
</g>
<!-- PostModule&#45;&gt;PostsService  -->
<g id="edge13" class="edge">
<title>PostModule&#45;&gt;PostsService </title>
<path fill="none" stroke="black" stroke-dasharray="5,2" d="M454.98,-248C487.34,-248 526.6,-248 526.6,-248 526.6,-248 526.6,-333 526.6,-333 526.6,-333 782.39,-333 782.39,-333"/>
<polygon fill="black" stroke="black" points="782.39,-336.5 792.39,-333 782.39,-329.5 782.39,-336.5"/>
</g>
<!-- UsersModule  -->
<g id="node13" class="node">
<title>UsersModule </title>
<polygon fill="#fb8072" stroke="black" points="996.42,-342 901.58,-342 901.58,-306 996.42,-306 996.42,-342"/>
<text text-anchor="middle" x="949" y="-319.8" font-family="Times,serif" font-size="14.00">UsersModule </text>
</g>
<!-- PostModule&#45;&gt;UsersModule  -->
<g id="edge14" class="edge">
<title>PostModule&#45;&gt;UsersModule </title>
<path fill="none" stroke="black" stroke-dasharray="5,2" d="M447.28,-266.11C447.28,-275.9 447.28,-286 447.28,-286 447.28,-286 905.92,-286 905.92,-286 905.92,-286 905.92,-295.89 905.92,-295.89"/>
<polygon fill="black" stroke="black" points="902.42,-295.89 905.92,-305.89 909.42,-295.89 902.42,-295.89"/>
</g>
<!-- TagsModule -->
<g id="node4" class="node">
<title>TagsModule</title>
<polygon fill="#8dd3c7" stroke="black" points="537.26,-198 534.26,-202 513.26,-202 510.26,-198 450.74,-198 450.74,-162 537.26,-162 537.26,-198"/>
<text text-anchor="middle" x="494" y="-175.8" font-family="Times,serif" font-size="14.00">TagsModule</text>
</g>
<!-- TagsModule&#45;&gt;AppModule -->
<g id="edge4" class="edge">
<title>TagsModule&#45;&gt;AppModule</title>
<path fill="none" stroke="black" d="M485.33,-198.24C485.33,-198.24 485.33,-295.91 485.33,-295.91"/>
<polygon fill="black" stroke="black" points="481.83,-295.91 485.33,-305.91 488.83,-295.91 481.83,-295.91"/>
</g>
<!-- UsersModule -->
<g id="node5" class="node">
<title>UsersModule</title>
<polygon fill="#8dd3c7" stroke="black" points="751.92,-198 748.92,-202 727.92,-202 724.92,-198 660.08,-198 660.08,-162 751.92,-162 751.92,-198"/>
<text text-anchor="middle" x="706" y="-175.8" font-family="Times,serif" font-size="14.00">UsersModule</text>
</g>
<!-- UsersModule&#45;&gt;PostModule -->
<g id="edge12" class="edge">
<title>UsersModule&#45;&gt;PostModule</title>
<path fill="none" stroke="black" d="M690.76,-198.02C690.76,-215.37 690.76,-239 690.76,-239 690.76,-239 464.88,-239 464.88,-239"/>
<polygon fill="black" stroke="black" points="464.88,-235.5 454.88,-239 464.88,-242.5 464.88,-235.5"/>
</g>
<!-- UsersModule&#45;&gt;AppModule -->
<g id="edge5" class="edge">
<title>UsersModule&#45;&gt;AppModule</title>
<path fill="none" stroke="black" d="M721.24,-198.24C721.24,-236.99 721.24,-324 721.24,-324 721.24,-324 525.66,-324 525.66,-324"/>
<polygon fill="black" stroke="black" points="525.66,-320.5 515.66,-324 525.66,-327.5 525.66,-320.5"/>
</g>
<!-- UserService  -->
<g id="node14" class="node">
<title>UserService </title>
<polygon fill="#fb8072" stroke="black" points="1291.9,-266 1204.1,-266 1204.1,-230 1291.9,-230 1291.9,-266"/>
<text text-anchor="middle" x="1248" y="-243.8" font-family="Times,serif" font-size="14.00">UserService </text>
</g>
<!-- UsersModule&#45;&gt;UserService  -->
<g id="edge16" class="edge">
<title>UsersModule&#45;&gt;UserService </title>
<path fill="none" stroke="black" stroke-dasharray="5,2" d="M751.74,-174C882.41,-174 1248,-174 1248,-174 1248,-174 1248,-219.71 1248,-219.71"/>
<polygon fill="black" stroke="black" points="1244.5,-219.71 1248,-229.71 1251.5,-219.71 1244.5,-219.71"/>
</g>
<!-- AppService -->
<g id="node7" class="node">
<title>AppService</title>
<ellipse fill="#fdb462" stroke="black" cx="81" cy="-180" rx="56.74" ry="18"/>
<text text-anchor="middle" x="81" y="-175.8" font-family="Times,serif" font-size="14.00">AppService</text>
</g>
<!-- AppService&#45;&gt;AppModule -->
<g id="edge6" class="edge">
<title>AppService&#45;&gt;AppModule</title>
<path fill="none" stroke="black" d="M81,-198.15C81,-238.68 81,-333 81,-333 81,-333 422.31,-333 422.31,-333"/>
<polygon fill="black" stroke="black" points="422.31,-336.5 432.31,-333 422.31,-329.5 422.31,-336.5"/>
</g>
<!-- PostsService -->
<g id="node8" class="node">
<title>PostsService</title>
<ellipse fill="#fdb462" stroke="black" cx="216" cy="-180" rx="60.27" ry="18"/>
<text text-anchor="middle" x="216" y="-175.8" font-family="Times,serif" font-size="14.00">PostsService</text>
</g>
<!-- PostsService&#45;&gt;PostModule -->
<g id="edge15" class="edge">
<title>PostsService&#45;&gt;PostModule</title>
<path fill="none" stroke="black" d="M236.13,-197.16C236.13,-217.3 236.13,-248 236.13,-248 236.13,-248 361.08,-248 361.08,-248"/>
<polygon fill="black" stroke="black" points="361.08,-251.5 371.08,-248 361.08,-244.5 361.08,-251.5"/>
</g>
<!-- PostsService&#45;&gt;AppModule -->
<g id="edge7" class="edge">
<title>PostsService&#45;&gt;AppModule</title>
<path fill="none" stroke="black" d="M195.87,-197.08C195.87,-235.23 195.87,-324 195.87,-324 195.87,-324 422.06,-324 422.06,-324"/>
<polygon fill="black" stroke="black" points="422.06,-327.5 432.06,-324 422.06,-320.5 422.06,-327.5"/>
</g>
<!-- AuthService -->
<g id="node10" class="node">
<title>AuthService</title>
<ellipse fill="#fdb462" stroke="black" cx="851" cy="-248" rx="59.11" ry="18"/>
<text text-anchor="middle" x="851" y="-243.8" font-family="Times,serif" font-size="14.00">AuthService</text>
</g>
<!-- AuthService&#45;&gt;AuthModule -->
<g id="edge9" class="edge">
<title>AuthService&#45;&gt;AuthModule</title>
<path fill="none" stroke="black" d="M799.36,-257C731.51,-257 620.89,-257 620.89,-257 620.89,-257 620.89,-208.25 620.89,-208.25"/>
<polygon fill="black" stroke="black" points="624.39,-208.25 620.89,-198.25 617.39,-208.25 624.39,-208.25"/>
</g>
<!-- MetaOptionsService -->
<g id="node11" class="node">
<title>MetaOptionsService</title>
<ellipse fill="#fdb462" stroke="black" cx="366" cy="-104" rx="90.33" ry="18"/>
<text text-anchor="middle" x="366" y="-99.8" font-family="Times,serif" font-size="14.00">MetaOptionsService</text>
</g>
<!-- MetaOptionsService&#45;&gt;MetaOptionsModule -->
<g id="edge10" class="edge">
<title>MetaOptionsService&#45;&gt;MetaOptionsModule</title>
<path fill="none" stroke="black" d="M366,-122.01C366,-122.01 366,-151.85 366,-151.85"/>
<polygon fill="black" stroke="black" points="362.5,-151.85 366,-161.85 369.5,-151.85 362.5,-151.85"/>
</g>
<!-- UserService -->
<g id="node15" class="node">
<title>UserService</title>
<ellipse fill="#fdb462" stroke="black" cx="1122" cy="-248" rx="58.44" ry="18"/>
<text text-anchor="middle" x="1122" y="-243.8" font-family="Times,serif" font-size="14.00">UserService</text>
</g>
<!-- UserService&#45;&gt;UsersModule -->
<g id="edge17" class="edge">
<title>UserService&#45;&gt;UsersModule</title>
<path fill="none" stroke="black" d="M1122,-229.73C1122,-211.44 1122,-186 1122,-186 1122,-186 762.11,-186 762.11,-186"/>
<polygon fill="black" stroke="black" points="762.11,-182.5 752.11,-186 762.11,-189.5 762.11,-182.5"/>
</g>
</g>
</svg>
